VIDEO INFO

Format                           : Matroska
File size                        : 4.29 GiB
Duration                         : 1h 44mn
Overall bit rate                 : 5 879 Kbps
Encoded date                     : UTC 2011-07-18 05:13:47
Writing application              : mkvmerge v4.9.1 ('Ich will') gemaakt op Jul 11 2011 23:53:15
Writing library                  : libebml v1.2.1 + libmatroska v1.1.1

Video
ID                               : 1
Format                           : AVC
Format/Info                      : Advanced Video Codec
Format profile                   : High@L4.1
Format settings, CABAC           : Yes
Format settings, ReFrames        : 5 frames
Muxing mode                      : Header stripping
Codec ID                         : V_MPEG4/ISO/AVC
Duration                         : 1h 44mn
Bit rate                         : 5 378 Kbps
Width                            : 1 280 pixels
Height                           : 720 pixels
Display aspect ratio             : 16:9
Frame rate                       : 23.976 fps
Color space                      : YUV
Chroma subsampling               : 4:2:0
Bit depth                        : 8 bits
Scan type                        : Progressive
Bits/(Pixel*Frame)               : 0.243
Stream size                      : 3.92 GiB (91%)
Language                         : English

Audio
ID                               : 2
Format                           : AC-3
Format/Info                      : Audio Coding 3
Mode extension                   : CM (complete main)
Muxing mode                      : Header stripping
Codec ID                         : A_AC3
Duration                         : 1h 44mn
Bit rate mode                    : Constant
Bit rate                         : 384 Kbps
Channel(s)                       : 6 channels
Channel positions                : Front: L C R, Side: L R, LFE
Sampling rate                    : 48.0 KHz
Bit depth                        : 16 bits
Compression mode                 : Lossy
Stream size                      : 287 MiB (7%)
Title                            : English DD 5.1
Language                         : English

Text
ID                               : 3
Format                           : UTF-8
Codec ID                         : S_TEXT/UTF8
Codec ID/Info                    : UTF-8 Plain Text
Language                         : Dutch

------------------

Verenigde Staten
Familie / Fantasy
106 minuten

geregisseerd door Matthew Robbins
met Hume Cronyn, Jessica Tandy en Elizabeth Peña

Een groep huurders wordt gedwongen uit hun appartementencomplex te verhuizen, zodat het complex kan worden gesloopt. De projectontwikkelaar huurt een knokploeg in om de huurders te verjagen. Gelukkig komt er net een groepje mechanische aliens uit de ruimte op bezoek. Zij sluiten vriendschap met de bewoners en helpen hen bij de strijd tegen de projectontwikkelaar met zijn knokploeg.

- Ondertiteling (nederlands) in de film met mogelijkheid deze wel of niet weer te geven.
